<?xml version="1.0" standalone="no"?><!DOCTYPE svg PUBLIC "-//W3C//DTD SVG 1.1//EN" "http://www.w3.org/Graphics/SVG/1.1/DTD/svg11.dtd"><svg t="1737079060048" class="icon" viewBox="0 0 1024 1024" version="1.1" xmlns="http://www.w3.org/2000/svg" p-id="23680" xmlns:xlink="http://www.w3.org/1999/xlink" width="200" height="200"><path d="M876.5952 221.1328L562.176 43.4176a102.4 102.4 0 0 0-100.352 0l-314.4704 177.664a102.0928 102.0928 0 0 0-51.8656 88.832v353.0752c0 36.6592 19.8656 70.7072 51.8656 88.7808l314.4704 177.7152a102.4 102.4 0 0 0 100.2496 0l314.4704-177.664a102.0928 102.0928 0 0 0 51.8144-88.832V309.8112a101.7344 101.7344 0 0 0-51.712-88.6784z m-19.6608 441.856a30.5152 30.5152 0 0 1-15.5136 26.5728l-314.4704 177.664a30.5664 30.5664 0 0 1-30.0032 0l-314.4704-177.664a30.6176 30.6176 0 0 1-15.5136-26.5728V309.8112c0-10.9568 5.888-21.1456 15.5136-26.5728l314.4704-177.664a31.0272 31.0272 0 0 1 29.9008 0l314.4704 177.664a30.6176 30.6176 0 0 1 15.5136 26.5728l0.1024 353.1776z m-164.2496-323.1744L512 445.2352 331.264 339.8144a35.7376 35.7376 0 0 0-48.6912 12.8 35.6864 35.6864 0 0 0 12.8 48.7424L476.3136 506.88v178.176a35.584 35.584 0 1 0 71.2704 0V506.88l180.8896-105.472a35.6352 35.6352 0 0 0-35.84-61.5936z" fill="#ffffff" p-id="23681"></path></svg>