<svg t="1747414172651" class="icon" viewBox="0 0 1024 1024" version="1.1" xmlns="http://www.w3.org/2000/svg" p-id="2358" width="200" height="200"><path d="M672 1024C512.96 1024 384 895.04 384 736S512.96 448 672 448 960 576.96 960 736 831.04 1024 672 1024zM672 576C583.616 576 512 647.616 512 736S583.616 896 672 896s160-71.616 160-160S760.384 576 672 576zM576 768l0-64 192 0 0 64L576 768zM832 339.968l0 84.096c-9.6-4.928-18.88-10.24-28.992-14.336C821.504 389.12 832 365.824 832 339.968zM723.776 389.184C706.752 386.688 689.728 384 672 384 597.568 384 528.832 407.36 471.936 446.784 463.872 447.04 456.192 448 448 448 235.968 448 64 362.048 64 256L64 192c0-106.048 171.968-192 384-192s384 85.952 384 192l0 64C832 307.84 790.528 354.688 723.776 389.184zM403.968 510.272C374.4 545.408 351.872 586.048 337.728 630.976 179.84 607.168 64 534.72 64 448L64 339.968C64 438.528 212.864 501.696 403.968 510.272zM324.096 695.168C322.496 708.736 320 721.984 320 736c0 29.888 4.864 58.368 11.904 86.08C176.96 797.376 64 725.696 64 640L64 531.968C64 616.256 173.184 674.496 324.096 695.168zM357.632 891.392c26.048 52.544 64.064 97.856 111.552 131.584C462.08 1023.104 455.232 1024 448 1024c-212.032 0-384-85.952-384-192l0-108.032C64 814.4 189.376 875.264 357.632 891.392z" fill="#ffffff" p-id="2359"></path></svg>