<svg t="1747414064001" class="icon" viewBox="0 0 1024 1024" version="1.1" xmlns="http://www.w3.org/2000/svg" p-id="6057" width="200" height="200"><path d="M449.024 415.072c232.448 0 394.24-57.696 394.24-129.024V208.576c0-71.008-160.096-129.024-394.24-129.024S81.056 137.92 81.056 208.576v77.472c0 71.328 135.52 129.024 367.968 129.024z m-40.608 243.712c0-67.232 24.224-132.096 68.256-182.944h-15.36c-195.232 0-305.504-38.912-361.12-91.808a53.664 53.664 0 0 0-19.104 39.584v106.848c0 64.864 120.16 119.808 327.328 128.352z m8.192 90.784c-166.912-5.792-266.592-41.984-315.744-90.784a54.624 54.624 0 0 0-19.808 39.584v106.848c0 69.984 142.336 128 385.696 128h71.008a287.392 287.392 0 0 1-120.864-181.824l-0.288-1.824z m274.08-304.128c-134.496 0-243.712 109.216-243.712 243.712s109.216 243.712 243.712 243.712 243.712-108.896 243.712-243.712a244.288 244.288 0 0 0-243.68-243.712h-0.032z m93.184 271.712h-118.784l28.32 28.32c10.912 10.912 10.912 28.32 0 39.264s-28.32 10.912-39.264 0l-75.104-75.104a27.712 27.712 0 0 1 0-40.608l75.424-75.424c10.912-10.912 28.32-10.912 39.264 0s10.912 28.32 0 39.264l-28.32 28.32h118.784c15.008 0 27.296 12.64 27.296 27.648-0.352 15.712-12.64 28.32-27.648 28.32z" p-id="6058" fill="#ffffff"></path></svg>