<svg t="1747414245666" class="icon" viewBox="0 0 1024 1024" version="1.1" xmlns="http://www.w3.org/2000/svg" p-id="6054" width="200" height="200"><path d="M484.535 419.198c235.619 0 399.54-58.398 399.54-130.674v-78.636c0-71.986-162.187-130.674-399.54-130.674s-372.942 58.977-372.942 130.674v78.636c0 72.276 137.324 130.674 372.942 130.674z m-41.341 246.893c0-68.228 24.573-133.854 69.095-185.314h-15.322c-198.035 0-309.629-39.318-366.004-93.09-11.853 10.118-19.08 24.573-19.37 40.184v108.414c0 65.626 121.712 121.133 331.6 129.806z m8.384 92.224c-169.125-5.782-270.31-42.498-320.036-91.934-12.143 10.118-19.37 24.573-19.949 40.185v108.413c0 70.83 144.262 129.807 390.867 129.807h71.986a293.092 293.092 0 0 1-122.868-186.47z m251.23-286.211c-121.423 0-220.296 98.584-220.296 220.296s98.583 220.296 220.295 220.296S923.103 814.4 923.103 692.4c-0.578-121.712-98.873-220.007-220.296-220.296z m100.896 238.22l-68.228 68.228a25.152 25.152 0 0 1-35.56 0 25.21 25.21 0 0 1-7.516-17.635c0-6.65 2.602-13.01 7.516-17.635l25.73-25.73H618.39a24.834 24.834 0 0 1-23.707-24.863c0-13.299 10.408-24.285 23.707-24.863h107.257l-25.73-25.73a25.21 25.21 0 0 1-7.517-17.635c0-6.65 2.602-13.01 7.516-17.635a25.152 25.152 0 0 1 35.56 0l67.939 67.939c4.915 4.625 8.095 10.985 8.095 18.502 0 6.36-2.891 12.72-7.806 17.057z m38.74 7.228" p-id="6055" fill="#ffffff"></path></svg>