<svg t="1735310749651" class="icon" viewBox="0 0 1024 1024" version="1.1" xmlns="http://www.w3.org/2000/svg" p-id="1488" width="200" height="200"><path d="M982.03 800.05c4.06-47.3-3.62-100.71-22.83-158.73-14.02-42.34-33.71-85.69-58.32-128.93 24.62-43.24 44.3-86.59 58.32-128.93 19.21-58.03 26.9-111.43 22.83-158.73a256.69 256.69 0 0 0-2.31-18.92c20.82-20.74 33.64-49.51 33.37-81.21-0.5-60.68-49.43-110.63-110.09-112.32-32.92-0.92-62.82 12.29-84.1 33.98-5.68-0.87-11.47-1.57-17.4-2.08-47.3-4.06-100.71 3.62-158.73 22.83-42.34 14.02-85.69 33.71-128.93 58.32-43.24-24.62-86.59-44.3-128.93-58.32-58.03-19.21-111.43-26.89-158.73-22.82-6.24 0.54-12.35 1.28-18.32 2.22-21.33-21.41-51.14-34.37-83.9-33.34-59.5 1.88-107.8 50.21-109.63 109.71-1.01 32.8 12 62.63 33.48 83.95-0.91 5.86-1.64 11.86-2.17 17.99-4.06 47.3 3.62 100.71 22.83 158.73 14.02 42.34 33.71 85.69 58.32 128.93-24.62 43.24-44.3 86.59-58.32 128.93-19.21 58.03-26.9 111.43-22.83 158.73 0.48 5.61 1.14 11.09 1.94 16.48-20.79 20.75-33.58 49.5-33.3 81.19 0.54 61.15 50.22 111.26 111.36 112.3 31.33 0.53 59.86-11.73 80.7-31.88 6.45 1.05 13.06 1.88 19.84 2.46 8.2 0.7 16.57 1.06 25.13 1.06 40.81 0 85.63-8 133.6-23.89 42.34-14.02 85.69-33.71 128.93-58.32 43.24 24.62 86.59 44.3 128.93 58.32 47.97 15.88 92.78 23.89 133.6 23.89 8.56 0 16.94-0.35 25.13-1.06 5.68-0.49 11.24-1.15 16.69-1.97 20.88 19.95 49.34 32.02 80.57 31.39 60.16-1.22 109.28-49.95 110.95-110.11 0.86-30.91-10.74-59.16-30.12-80.1a256.7 256.7 0 0 0 2.44-19.75zM846.58 114.46c4.67-22.4 23.17-39.76 46.12-42.76 2.32-0.3 4.68-0.48 7.08-0.48 29.97 0 54.34 24.38 54.34 54.34 0 2.23-0.15 4.42-0.41 6.58-2.79 23.02-20.03 41.65-42.36 46.51-3.73 0.81-7.6 1.25-11.57 1.25-29.96 0-54.34-24.38-54.34-54.34-0.01-3.8 0.39-7.51 1.14-11.1z m-185.27 8.55c42.58-14.1 81.44-21.1 115.47-21.1 4.1 0 8.13 0.11 12.09 0.31-1.58 7.54-2.42 15.34-2.42 23.34 0 62.46 51.37 113.61 113.83 113.33 8.12-0.04 16.03-0.94 23.66-2.6 2.08 37.04-4.79 80.46-20.74 128.62-9.76 29.49-22.57 59.57-38.11 89.81-37.2-55.32-82.05-109.64-133-160.6-50.95-50.95-105.28-95.8-160.6-133 30.25-15.54 60.33-28.34 89.82-38.11z m-587.66 9.68c-0.24-2.09-0.38-4.2-0.38-6.35C73.26 96.37 97.64 72 127.61 72c2.11 0 4.19 0.13 6.25 0.37 23.13 2.66 41.89 19.9 46.81 42.28 0.83 3.77 1.28 7.68 1.28 11.7 0 29.96-24.38 54.34-54.34 54.34-3.98 0-7.86-0.44-11.6-1.26-22.39-4.9-39.66-23.62-42.36-46.74z m50.82 232.22c-15.83-47.81-22.71-90.93-20.78-127.79a113.53 113.53 0 0 0 23.92 2.55c62.49 0 113.33-50.84 113.33-113.33 0-8.27-0.9-16.33-2.59-24.1 4.11-0.22 8.29-0.33 12.55-0.33 34.03 0 72.9 7.01 115.47 21.1 29.49 9.76 59.57 22.57 89.81 38.11-55.32 37.2-109.64 82.05-160.6 133-50.95 50.95-95.8 105.28-133 160.6-15.54-30.23-28.35-60.32-38.11-89.81z m55.83 545.06c-5.64 22.39-25.21 39.28-48.92 40.92-1.25 0.09-2.51 0.15-3.78 0.15-29.96 0-54.34-24.38-54.34-54.34 0-1.64 0.09-3.27 0.23-4.88 2.11-23.57 19.32-42.84 41.86-48.06 3.94-0.91 8.04-1.41 12.25-1.41 29.96 0 54.34 24.38 54.34 54.34 0.01 4.58-0.57 9.03-1.64 13.28z m186.07-8.22c-48.07 15.92-91.41 22.79-128.4 20.75 1.91-8.18 2.94-16.7 2.97-25.44 0.2-62.5-49.4-112.9-111.89-113.68-8.74-0.11-17.25 0.78-25.44 2.56-1.63-36.48 5.28-79.01 20.87-126.08 9.76-29.49 22.57-59.57 38.11-89.81 37.2 55.32 82.05 109.64 133 160.6 50.95 50.95 105.28 95.8 160.6 133-30.25 15.53-60.33 28.34-89.82 38.1z m93.72-107.33c-42.11-30.71-83.45-66.14-122.79-105.49-55.99-55.99-104.05-116.02-141.88-176.55 37.82-60.53 85.89-120.56 141.88-176.55 46.68-46.68 96.16-87.84 146.4-122.16v148.67h-96.25c-16.57 0-30 13.43-30 30v249.7c0 16.57 13.43 30 30 30h72.64v122.38z m0-182.37h-42.64v-18.74h42.64v18.74z m-42.65-78.74V422.35h189.7v110.96h-189.7z m189.7 60v18.74h-87.06v-18.74h87.06z m-87.05 78.75h117.06c16.57 0 30-13.43 30-30v-249.7c0-16.57-13.43-30-30-30H543.7V213.48c50.34 34.36 99.93 75.59 146.69 122.36 55.99 55.99 104.05 116.02 141.88 176.55-37.82 60.53-85.89 120.56-141.88 176.55C636.33 743 578.5 789.67 520.09 826.87V672.06zM783.1 896.69c0 8.94 1.04 17.63 3.01 25.98-36.2 1.42-78.28-5.51-124.8-20.92-29.49-9.76-59.57-22.57-89.81-38.11 55.32-37.2 109.64-82.05 160.6-133 50.95-50.95 95.8-105.28 133-160.6 15.54 30.24 28.35 60.32 38.11 89.81 15.7 47.43 22.6 90.25 20.83 126.92-8.84-2.22-18.08-3.41-27.6-3.41-62.5 0-113.34 50.84-113.34 113.33z m167.66 0.66c-0.35 29.66-24.58 53.69-54.33 53.69-0.12 0-0.24-0.01-0.36-0.01-24.74-0.16-45.6-16.94-51.97-39.71a54.27 54.27 0 0 1-2.01-14.62c0-29.96 24.38-54.34 54.34-54.34 5.4 0 10.62 0.8 15.55 2.28 22.41 6.7 38.8 27.5 38.8 52.06-0.01 0.21-0.02 0.43-0.02 0.65z" p-id="1489" fill="#ffffff"></path></svg>