<svg t="1736173847819" class="icon" viewBox="0 0 1024 1024" version="1.1" xmlns="http://www.w3.org/2000/svg" p-id="2601" width="200" height="200"><path d="M851.2 409.6L615.04 175.168a28.416 28.416 0 0 1 0-40.64l61.632-61.952a28.352 28.352 0 0 1 40.576 0l236.16 234.368a28.416 28.416 0 0 1 0 40.64L891.84 409.6a29.056 29.056 0 0 1-40.64 0z" fill="#ffffff" p-id="2602"></path><path d="M778.88 453.76l-64.832 65.536-0.704-0.704a149.44 149.44 0 0 0-192.384-14.976l-79.488-78.656c-12.8-12.8-12.8-33.472-0.32-46.336L571.2 247.552c12.8-12.8 33.472-12.8 46.272 0l161.408 160.32c12.8 12.48 12.8 33.088 0 45.952zM474.24 689.28L365.632 798.592a29.248 29.248 0 0 1-41.344 0l-97.6-96.896a29.568 29.568 0 0 1-0.384-41.344l169.28-170.624a29.248 29.248 0 0 1 41.28 0l49.216 48.832a149.76 149.76 0 0 0-11.776 150.656z" fill="#ffffff" p-id="2603"></path><path d="M675.584 553.856a96.96 96.96 0 0 0-137.536 0.704 97.28 97.28 0 1 0 137.536-0.64zM572.288 657.92a49.472 49.472 0 0 1 69.44-70.208c19.2 19.2 19.584 50.56 0.384 69.824a49.152 49.152 0 0 1-69.824 0.384zM209.6 952.512a24.32 24.32 0 0 1-34.944 0.384L71.36 850.304a24.832 24.832 0 0 1 0-35.328 24.32 24.32 0 0 1 34.88-0.32l16.768 16.768 63.744-64.512a25.472 25.472 0 0 1 36.352 0l33.152 32.768a25.472 25.472 0 0 1 0 36.352l-63.808 64.448 16.768 16.768c9.984 9.984 9.984 25.6 0.384 35.264z" fill="#ffffff" p-id="2604"></path></svg>