<svg xmlns="http://www.w3.org/2000/svg" version="1.1" width="1000px" height="1000px" style="shape-rendering:geometricPrecision; text-rendering:geometricPrecision; image-rendering:optimizeQuality; fill-rule:evenodd; clip-rule:evenodd" xmlns:xlink="http://www.w3.org/1999/xlink">
<g><path style="opacity:1" fill="#fff" d="M 484.5,212.5 C 579.832,209.749 659.332,243.415 723,313.5C 786.172,392.392 800.172,479.392 765,574.5C 729.581,651.803 671.415,703.636 590.5,730C 546.827,743.305 502.494,746.971 457.5,741C 442.71,738.631 428.044,735.965 413.5,733C 382.333,750.833 351.167,768.667 320,786.5C 319.667,752.167 319.333,717.833 319,683.5C 252.003,631.674 217.503,563.174 215.5,478C 216.107,412.82 237.941,355.987 281,307.5C 336.282,249.279 404.116,217.613 484.5,212.5 Z M 525.5,420.5 C 524.167,421.167 523.167,422.167 522.5,423.5C 521.427,424.251 521.26,425.251 522,426.5C 544.667,473.167 567.333,519.833 590,566.5C 594.606,566.529 599.273,566.863 604,567.5C 604.833,567.167 605.667,566.833 606.5,566.5C 629.372,519.257 652.372,472.09 675.5,425C 662.026,411.654 659.526,396.487 668,379.5C 680.986,363.369 696.82,359.869 715.5,369C 731.885,381.921 735.385,397.754 726,416.5C 716.738,428.965 704.405,434.298 689,432.5C 666.333,479.167 643.667,525.833 621,572.5C 621.265,575.82 622.931,578.487 626,580.5C 637.186,599.822 634.019,616.322 616.5,630C 598.451,638.911 582.951,635.744 570,620.5C 560.625,603.621 562.792,588.288 576.5,574.5C 553.5,527.167 530.5,479.833 507.5,432.5C 506.833,432.167 506.167,431.833 505.5,431.5C 500.797,432.196 496.13,432.529 491.5,432.5C 468.5,479.833 445.5,527.167 422.5,574.5C 438.392,591.184 439.058,608.351 424.5,626C 406.069,639.57 388.902,638.07 373,621.5C 363.023,604.844 364.69,589.51 378,575.5C 378.667,574.5 378.667,573.5 378,572.5C 355.333,525.833 332.667,479.167 310,432.5C 290.073,434.372 276.407,426.039 269,407.5C 265.451,381.935 276.451,367.268 302,363.5C 322.823,365.657 334.323,377.157 336.5,398C 335.905,408.855 331.572,417.855 323.5,425C 346.628,472.09 369.628,519.257 392.5,566.5C 393.333,566.833 394.167,567.167 395,567.5C 399.727,566.863 404.394,566.529 409,566.5C 431.667,519.833 454.333,473.167 477,426.5C 477.667,425.5 477.667,424.5 477,423.5C 467.351,414.554 463.685,403.554 466,390.5C 473.887,367.973 489.387,359.806 512.5,366C 528.527,374.369 535.361,387.535 533,405.5C 531.541,411.085 529.041,416.085 525.5,420.5 Z"/></g>
<g><path style="opacity:0.804" fill="#fff" d="M 525.5,420.5 C 525.5,422.5 524.5,423.5 522.5,423.5C 523.167,422.167 524.167,421.167 525.5,420.5 Z"/></g>
</svg>
