<?xml version="1.0" standalone="no"?><!DOCTYPE svg PUBLIC "-//W3C//DTD SVG 1.1//EN" "http://www.w3.org/Graphics/SVG/1.1/DTD/svg11.dtd"><svg t="1737078743007" class="icon" viewBox="0 0 1024 1024" version="1.1" xmlns="http://www.w3.org/2000/svg" p-id="11119" xmlns:xlink="http://www.w3.org/1999/xlink" width="200" height="200"><path d="M896 384c-59.5 0-109.7 40.9-124 96H512c-17.7 0-32 14.3-32 32s14.3 32 32 32h260c14.2 55.1 64.4 96 124 96 70.6 0 128-57.4 128-128s-57.4-128-128-128z m0 192c-35.3 0-64-28.7-64-64s28.7-64 64-64 64 28.7 64 64-28.7 64-64 64zM896 704c-59.5 0-109.7 40.9-124 96H532.4l-66.1-141.7c-7.5-16-26.5-22.9-42.5-15.5-16 7.5-22.9 26.5-15.5 42.5L483 845.5c5.3 11.3 16.6 18.5 29 18.5h260c14.2 55.1 64.4 96 124 96 70.6 0 128-57.4 128-128s-57.4-128-128-128z m0 192c-35.3 0-64-28.7-64-64s28.7-64 64-64 64 28.7 64 64-28.7 64-64 64z" p-id="11120" fill="#1296db"></path><path d="M772 224c14.2 55.1 64.4 96 124 96 70.6 0 128-57.4 128-128S966.6 64 896 64c-59.5 0-109.7 40.9-124 96H512c-13.1 0-24.9 8-29.7 20.1L234.3 800H32c-17.7 0-32 14.3-32 32s14.3 32 32 32h224c13.1 0 24.9-8 29.7-20.1l248-619.9H772z m124-96c35.3 0 64 28.7 64 64s-28.7 64-64 64-64-28.7-64-64 28.7-64 64-64z" p-id="11121" fill="#1296db"></path><path d="M32 224h203.6l66 141.5c5.4 11.6 17 18.5 29 18.5 4.5 0 9.1-1 13.5-3 16-7.5 22.9-26.5 15.5-42.5l-74.6-160c-5.3-11.3-16.6-18.5-29-18.5H32c-17.7 0-32 14.3-32 32s14.3 32 32 32z" p-id="11122" fill="#1296db"></path></svg>