<svg t="1733885426394" class="icon" viewBox="0 0 1024 1024" version="1.1" xmlns="http://www.w3.org/2000/svg" p-id="2395" width="200" height="200"><path d="M666.368 463.146667c0-2.048 0.213333-4.096 0.213333-6.058667 0-1.962667-0.213333-3.882667-0.213333-6.058667V355.712c0-2.133333 0.213333-4.096 0.213333-6.058667 0-16.768-4.821333-41.984-27.648-66.56-13.824-14.933333-32.853333-27.904-56.448-38.613333-44.288-20.096-102.4-31.146667-163.712-31.146667-61.269333 0-119.466667 11.050667-163.669333 31.146667-23.594667 10.709333-42.624 23.722667-56.448 38.656-22.826667 24.533333-27.733333 49.621333-27.733333 66.56 0 0.853333-0.256 1.578667-0.256 2.432v323.498667h0.554666c0.896 16.64 6.656 39.509333 27.434667 61.866666 13.824 14.933333 32.853333 27.946667 56.448 38.656 44.288 20.138667 102.4 31.146667 163.669333 31.146667 61.312 0 119.552-11.008 163.712-31.146667 21.333333-9.728 38.997333-21.333333 52.48-34.517333h-132.522666c-13.397333 0-25.301333-5.845333-33.28-15.018667-16.213333 1.92-33.152 2.901333-50.474667 2.901334-52.181333 0-100.949333-8.874667-137.386667-25.002667-34.090667-14.72-43.306667-29.866667-43.306666-32.853333v-0.554667c0-1.109333 1.578667-3.882667 4.864-7.68 3.925333 2.048 7.978667 4.010667 12.117333 5.973333 44.288 20.053333 102.4 31.146667 163.712 31.146667 13.610667 0 26.965333-0.554667 40.106667-1.621333a41.472 41.472 0 0 1 18.688-33.792 42.112 42.112 0 0 1-15.402667-18.474667 41.088 41.088 0 0 1-2.133333-25.856c-13.397333 1.28-27.306667 1.92-41.386667 1.92-52.138667 0-100.949333-8.874667-137.386667-25.002667-33.962667-15.018667-43.178667-30.165333-43.178666-33.194666v-0.554667c0-1.066667 1.578667-3.84 4.864-7.68 3.925333 2.048 7.978667 4.010667 12.117333 5.973333 44.288 20.096 102.4 31.146667 163.712 31.146667 22.272 0 44.16-1.493333 65.066667-4.309333l69.034666-66.346667c8.234667-7.893333 19.114667-12.202667 30.805334-12.202667 11.690667 0 22.613333 4.309333 30.805333 12.330667 17.066667 16.426667 17.066667 43.264-0.085333 59.733333l-7.082667 6.826667h59.136v-19.2c0-2.048 0.213333-4.096 0.213333-6.058667 0-1.92-0.213333-3.84-0.213333-6.058666v-94.976zM281.301333 316.245333c36.522667-16.128 85.333333-25.002667 137.472-25.002666 52.181333 0 100.992 8.874667 137.514667 25.002666 33.28 14.677333 42.24 29.44 43.178667 32.981334h-0.554667v1.28c0 1.408-1.706667 4.010667-4.693333 7.381333-5.76 6.485333-17.024 15.914667-38.144 25.173333a294.058667 294.058667 0 0 1-73.514667 20.352c-20.266667 3.029333-41.728 4.693333-63.872 4.693334-22.186667 0-43.648-1.664-63.872-4.693334a294.101333 294.101333 0 0 1-73.514667-20.309333c-21.162667-9.301333-32.512-18.773333-38.229333-25.216-3.712-4.266667-5.077333-7.253333-5.077333-8.234667 0.128-2.389333 8.32-17.92 43.306666-33.408z m274.901334 174.506667c-36.565333 16.085333-85.333333 25.088-137.514667 25.088-52.181333 0-100.949333-8.96-137.386667-25.088-34.090667-15.061333-43.306667-30.293333-43.306666-33.322667V456.874667c0-1.194667 1.578667-4.010667 5.077333-7.893334l-2.688-1.408 2.901333 1.408h0.213334c3.413333 2.048 7.552 4.010667 11.733333 5.845334 44.288 20.138667 102.272 31.146667 163.541333 31.146666 61.312 0 119.424-11.008 163.712-31.146666 4.053333-1.834667 7.978667-3.797333 11.818667-5.76l-0.128-0.085334 2.816-1.408c-0.896 0.426667-1.792 0.981333-2.56 1.408 3.669333 4.224 5.034667 7.253333 5.034667 8.234667-0.128 2.346667-8.32 18.048-43.264 33.536z" p-id="2396" fill="#1296db"></path><path d="M738.090667 810.666667a27.392 27.392 0 0 1-18.901334-7.466667 24.746667 24.746667 0 0 1 0-36.138667l43.093334-41.344h-257.578667a26.453333 26.453333 0 0 1-26.666667-25.941333 26.453333 26.453333 0 0 1 26.624-25.984h322.005334c10.794667 0 20.565333 6.4 24.618666 16.042667a25.130667 25.130667 0 0 1-5.717333 27.989333l-88.618667 85.376A27.392 27.392 0 0 1 738.133333 810.666667z m86.912-154.154667h-320.426667a26.666667 26.666667 0 0 1-24.618667-16.042667 24.96 24.96 0 0 1 5.845334-27.989333l81.28-78.037333a27.434667 27.434667 0 0 1 37.76 0 25.472 25.472 0 0 1 0 36.693333l-35.754667 34.517333h255.786667c14.72 0 26.666667 11.264 26.666666 25.429334a25.856 25.856 0 0 1-26.538666 25.429333z" p-id="2397" fill="#1296db"></path><path d="M213.333333 336.512a213.333333 82.133333 0 1 0 426.666667 0 213.333333 82.133333 0 1 0-426.666667 0Z" p-id="2398" fill="#1296db"></path></svg>