<svg t="1735316334843" class="icon" viewBox="0 0 1024 1024" version="1.1" xmlns="http://www.w3.org/2000/svg" p-id="1486" width="200" height="200"><path d="M168.874667 388.8v-60.010667c0-7.701333 1.28-16.170667 3.818666-25.386666 2.56-9.216 5.696-16.597333 9.450667-22.101334 3.754667-5.546667 9.28-10.581333 16.554667-15.146666 7.296-4.608 17.621333-6.890667 30.933333-6.890667h110.336c16.853333 0 28.970667 2.56 36.309333 7.722667 7.36 5.162667 12.906667 10.581333 16.64 16.256 3.754667 5.674667 6.762667 12.693333 9.002667 21.013333 2.24 8.32 3.349333 18.645333 3.349333 30.933333v56.106667c0 10.197333-0.682667 20.949333-2.026666 32.256-1.365333 11.306667-4.096 19.584-8.213334 24.853333a64 64 0 0 1-12.650666 12.586667 76.629333 76.629333 0 0 1-14.933334 8.277333c-5.610667 2.389333-14.613333 3.584-27.008 3.584h-109.866666c-7.061333 0-14.912-1.621333-23.509334-4.842666-8.597333-3.221333-16.576-8.832-23.978666-16.789334-7.402667-7.978667-11.136-16.917333-11.242667-26.794666l-2.986667-35.626667z m84.842666-81.728a79.36 79.36 0 0 0-17.344 2.261333c-4.266667 1.194667-7.765333 3.264-10.474666 6.186667-2.709333 2.901333-4.693333 6.442667-5.930667 10.624-1.258667 4.16-1.877333 9.173333-1.877333 14.997333v46.869334c0 10.218667 0.746667 17.536 2.261333 21.952 1.493333 4.437333 3.477333 7.594667 5.930667 9.536 2.453333 1.92 5.632 3.306667 9.536 4.138666 3.904 0.832 10.133333 1.258667 18.666666 1.258667h65.002667c3.328 0 8.256-0.405333 14.762667-1.173333 6.506667-0.789333 10.794667-2.048 12.8-3.754667 2.048-1.706667 4.053333-5.333333 6.037333-10.794667 1.984-5.461333 2.965333-11.989333 2.965333-19.605333V341.76c0-6.144-0.853333-11.370667-2.496-15.701333a29.44 29.44 0 0 0-6.4-10.389334c-2.624-2.602667-6.826667-4.693333-12.586666-6.250666a63.744 63.744 0 0 0-16.64-2.346667h-64.213334zM494.336 535.04h-44.074667L450.133333 317.866667h44.373334l-0.149334 14.826666c3.541333-2.176 7.253333-4.693333 11.178667-7.488a55.893333 55.893333 0 0 1 9.045333-5.632c2.133333-0.938667 6.122667-1.664 11.946667-2.197333l23.765333-1.557333a166.186667 166.186667 0 0 1 17.664-0.469334c1.962667 0.213333 6.506667 0.938667 13.589334 2.197334 7.082667 1.237333 12.885333 2.624 17.408 4.138666 4.544 1.493333 8.810667 4.501333 12.821333 8.981334s6.805333 9.386667 8.362667 14.762666c1.557333 5.376 2.773333 11.946667 3.669333 19.776 0.874667 7.808 1.322667 15.466667 1.322667 22.954667l-0.938667 22.656c-0.512 12.8-1.557333 21.568-3.114667 26.24-1.557333 4.693333-3.648 8.96-6.250666 12.821333-2.602667 3.861333-5.504 7.018667-8.682667 9.450667a38.272 38.272 0 0 1-10.773333 5.781333c-4.010667 1.408-9.6 2.816-16.725334 4.224a156.693333 156.693333 0 0 1-14.613333 2.432 106.752 106.752 0 0 1-15.146667-0.170666c-7.296-0.426667-12.544-0.789333-15.786666-1.152a78.144 78.144 0 0 1-14.144-3.605334c-6.186667-2.026667-10.688-4.245333-13.504-6.634666l-11.093334-8.277334v83.114667z m58.752-105.621333c6.357333-0.106667 10.88-0.853333 13.589333-2.261334a18.346667 18.346667 0 0 0 6.954667-6.656 25.813333 25.813333 0 0 0 3.754667-9.92c0.576-3.584 0.874667-8.576 0.938666-14.997333 0.042667-6.4-0.085333-11.370667-0.405333-14.933333a48.277333 48.277333 0 0 0-2.56-10.218667 18.112 18.112 0 0 0-5.248-7.658667 20.096 20.096 0 0 0-7.722667-4.053333 55.722667 55.722667 0 0 0-12.736-1.344h-30.314666c-4.266667 0.213333-8.234667 0.810667-11.882667 1.813333a16.853333 16.853333 0 0 0-9.066667 6.08c-2.389333 3.072-3.584 7.530667-3.584 13.376v16.853334c0 10.112 0.426667 16.64 1.322667 19.626666 0.896 2.965333 2.069333 5.290667 3.52 6.954667a20.842667 20.842667 0 0 0 6.805333 4.693333c3.072 1.450667 7.125333 2.304 12.16 2.56 5.077333 0.256 10.176 0.362667 15.338667 0.32l19.136-0.234666zM832.149333 384.256h-45.930666c-0.746667-5.930667-1.984-10.154667-3.754667-12.650667-1.770667-2.496-4.650667-4.394667-8.597333-5.696a44.693333 44.693333 0 0 0-11.413334-2.282666l-17.344 0.469333c-11.349333 0.32-19.093333 1.216-23.189333 2.666667a15.573333 15.573333 0 0 0-8.917333 7.189333c-1.813333 3.328-2.837333 7.253333-3.050667 11.797333-0.213333 4.522667-0.213333 11.008 0 19.456 0.213333 11.029333 2.048 18.346667 5.482667 21.952 3.413333 3.584 10.346667 5.376 20.778666 5.376h23.744c6.976 0 12.885333-0.853333 17.728-2.56 4.842667-1.728 7.317333-4.053333 7.424-6.954666l2.026667-11.413334h46.101333c-1.045333 12.288-2.346667 21.76-3.904 28.437334-1.557333 6.656-4.266667 12.757333-8.106666 18.282666a36.053333 36.053333 0 0 1-16.64 12.650667c-7.253333 2.922667-18.986667 4.373333-35.264 4.373333h-37.653334c-14.677333 0-25.898667-1.28-33.664-3.84-7.765333-2.538667-13.930667-5.994667-18.517333-10.368a43.306667 43.306667 0 0 1-10.069333-13.909333c-2.133333-4.906667-3.648-11.648-4.544-20.245333-0.874667-8.576-1.322667-21.632-1.322667-39.125334 0-9.173333 0.362667-16.597333 1.088-22.272 0.725333-5.674667 2.453333-11.242667 5.162667-16.725333 2.709333-5.461333 6.592-10.176 11.648-14.144 5.034667-3.946667 10.730667-7.36 17.024-10.24 6.293333-2.858667 13.098667-4.266667 20.394666-4.266667h42.666667c9.258667 0 17.92 0.618667 26.005333 1.856 8.064 1.258667 15.04 3.434667 20.928 6.570667 5.888 3.114667 10.261333 6.741333 13.12 10.858667 2.88 4.117333 5.12 9.173333 6.826667 15.146666 1.642667 5.994667 2.581333 11.136 2.773333 15.402667l0.96 14.208zM172.928 516.352h48.896V642.133333c0 1.258667 0.426667 5.653333 1.258667 13.205334 0.853333 7.552 1.813333 12.48 2.986666 14.762666 1.130667 2.304 4.416 4.565333 9.813334 6.805334 5.44 2.24 11.733333 3.349333 18.922666 3.349333h53.12c9.898667 0 16.618667-0.768 20.16-2.346667a30.506667 30.506667 0 0 0 9.130667-6.08c2.56-2.496 4.48-5.418667 5.781333-8.746666 1.301333-3.349333 1.962667-9.898667 1.962667-19.690667v-127.04h48.896v144.533333c0 12.501333-1.237333 22.101333-3.733333 28.821334a96.512 96.512 0 0 1-6.4 14.528c-1.792 2.986667-4.138667 5.76-7.04 8.362666a45.973333 45.973333 0 0 1-9.301334 6.485334c-3.285333 1.706667-8.533333 3.754667-15.701333 6.101333-7.189333 2.346667-17.024 3.52-29.525333 3.52h-82.517334c-10.090667 0-18.410667-1.130667-24.917333-3.370667a85.696 85.696 0 0 1-15.317333-6.634666 48.32 48.32 0 0 1-9.92-7.744 46.122667 46.122667 0 0 1-7.424-9.92 89.28 89.28 0 0 1-6.08-14.442667c-2.026667-5.973333-3.050667-14.357333-3.050667-25.088v-145.152zM488.704 620.586667h-45.013333l0.789333-17.045334c0-1.152 0.64-3.498667 1.877333-7.04 1.258667-3.541333 2.944-6.442667 5.077334-8.746666 2.133333-2.282667 4.821333-4.416 8.064-6.4 3.2-1.984 6.421333-3.434667 9.6-4.373334 3.178667-0.938667 6.976-1.792 11.413333-2.581333 4.416-0.789333 8.362667-1.173333 11.797333-1.173333l62.954667 0.469333c9.28 0.106667 16.64 1.493333 22.037333 4.138667 5.418667 2.666667 9.877333 6.08 13.354667 10.24 3.498667 4.16 6.186667 10.666667 8.128 19.456 1.92 8.789333 2.901333 17.834667 2.901333 27.093333v91.584l-45.312 0.298667v-14.378667c-2.816 2.602667-5.418667 4.906667-7.829333 6.890667-2.389333 1.962667-5.12 3.690667-8.192 5.141333a60.458667 60.458667 0 0 1-11.178667 3.84 56.149333 56.149333 0 0 1-14.677333 1.493333l-28.586667-0.32c-6.464 0-12.608-0.64-18.453333-1.962666a64.277333 64.277333 0 0 1-13.269333-4.138667 23.68 23.68 0 0 1-8.362667-7.189333 38.293333 38.293333 0 0 1-5.952-11.413334 80.576 80.576 0 0 1-3.029333-17.813333 87.957333 87.957333 0 0 1 0.768-21.717333c0.938667-5.824 2.837333-11.306667 5.717333-16.469334 2.858667-5.162667 6.912-9.152 12.16-11.946666 5.269333-2.816 12.437333-4.224 21.504-4.224h47.957333c4.053333 0 8.682667 0.64 13.845334 1.941333 5.141333 1.301333 8.405333 2.474667 9.749333 3.52l7.829333 5.930667c0.085333-6.549333 0.064-11.392-0.085333-14.506667a54.805333 54.805333 0 0 0-0.853333-7.829333 14.144 14.144 0 0 0-1.813334-4.906667c-0.768-1.216-2.474667-2.453333-5.077333-3.776a43.029333 43.029333 0 0 0-7.488-2.965333 32.554667 32.554667 0 0 0-8.746667-1.002667h-28.906666a20.629333 20.629333 0 0 0-7.509334 1.322667c-2.282667 0.874667-3.477333 1.706667-3.584 2.410666l-3.605333 8.128z m18.432 73.429333h21.888c8.32 0 14.165333-0.597333 17.493333-1.792 3.328-1.216 5.568-2.922667 6.72-5.162667 1.152-2.24 1.493333-5.610667 1.088-10.090666-0.426667-3.84-1.237333-6.506667-2.496-7.957334a10.965333 10.965333 0 0 0-6.186666-3.136 72.085333 72.085333 0 0 0-13.802667-0.938666h-25.322667c-4.778667 0-8.725333 0.469333-11.797333 1.408a17.621333 17.621333 0 0 0-7.253333 3.989333 9.898667 9.898667 0 0 0-2.986667 6.570667 15.488 15.488 0 0 0 0.469333 6.165333 12.8 12.8 0 0 0 3.2 5.696c1.621333 1.706667 3.370667 3.029333 5.248 3.904 1.877333 0.896 6.464 1.344 13.738667 1.344z" p-id="1487" fill="#1296db"></path></svg>